<svg width="360" height="83" viewBox="0 0 360 83" fill="none" xmlns="http://www.w3.org/2000/svg">
<rect width="360" height="83" fill="#323E66"/>
<path d="M86.1035 32.6836H97.4902V47H94.5996V35.0859H88.9941V47H86.1035V32.6836ZM99.7852 41.668C99.7852 40.7565 100.01 39.8743 100.459 39.0215C100.908 38.1686 101.543 37.5176 102.363 37.0684C103.19 36.6191 104.111 36.3945 105.127 36.3945C106.696 36.3945 107.982 36.9056 108.984 37.9277C109.987 38.9434 110.488 40.2292 110.488 41.7852C110.488 43.3542 109.98 44.6562 108.965 45.6914C107.956 46.7201 106.683 47.2344 105.146 47.2344C104.196 47.2344 103.288 47.0195 102.422 46.5898C101.562 46.1602 100.908 45.5319 100.459 44.7051C100.01 43.8717 99.7852 42.8594 99.7852 41.668ZM102.598 41.8145C102.598 42.8431 102.842 43.6309 103.33 44.1777C103.818 44.7246 104.421 44.998 105.137 44.998C105.853 44.998 106.452 44.7246 106.934 44.1777C107.422 43.6309 107.666 42.8366 107.666 41.7949C107.666 40.7793 107.422 39.998 106.934 39.4512C106.452 38.9043 105.853 38.6309 105.137 38.6309C104.421 38.6309 103.818 38.9043 103.33 39.4512C102.842 39.998 102.598 40.7858 102.598 41.8145ZM112.881 36.6289H122.07V47H119.336V38.8555H115.596V43.5137C115.596 44.6986 115.459 45.5319 115.186 46.0137C114.912 46.4889 114.609 46.8014 114.277 46.9512C113.945 47.1009 113.411 47.1758 112.676 47.1758C112.24 47.1758 111.663 47.1172 110.947 47V44.9785C111.006 44.9785 111.159 44.985 111.406 44.998C111.693 45.0176 111.914 45.0273 112.07 45.0273C112.441 45.0273 112.669 44.9069 112.754 44.666C112.839 44.4186 112.881 43.7383 112.881 42.625V36.6289ZM123.281 36.6289H126.201L128.682 43.9922L131.104 36.6289H133.945L130.283 46.6094L129.629 48.416C129.388 49.0215 129.157 49.4837 128.936 49.8027C128.721 50.1217 128.47 50.3789 128.184 50.5742C127.904 50.776 127.555 50.9323 127.139 51.043C126.729 51.1536 126.263 51.209 125.742 51.209C125.215 51.209 124.697 51.1536 124.189 51.043L123.945 48.8945C124.375 48.9792 124.762 49.0215 125.107 49.0215C125.745 49.0215 126.217 48.8327 126.523 48.4551C126.829 48.084 127.064 47.6087 127.227 47.0293L123.281 36.6289ZM135.391 36.6289H138.164V39.1094C138.164 39.6758 138.213 40.099 138.311 40.3789C138.415 40.6523 138.63 40.89 138.955 41.0918C139.287 41.2871 139.704 41.3848 140.205 41.3848C140.693 41.3848 141.24 41.2741 141.846 41.0527V36.6289H144.59V47H141.846V42.8594C140.778 43.1458 139.964 43.2891 139.404 43.2891C138.564 43.2891 137.809 43.11 137.139 42.752C136.468 42.3874 136.009 41.9251 135.762 41.3652C135.514 40.7988 135.391 40.0469 135.391 39.1094V36.6289ZM147.266 36.6289H149.902V43.1426L154.121 36.6289H156.816V47H154.18V40.3691L149.902 47H147.266V36.6289ZM158.408 36.6289H167.793V38.8457H164.473V47H161.729V38.8457H158.408V36.6289ZM169.502 36.6289H172.246V40.9355H175C176.081 40.9355 176.911 41.0137 177.49 41.1699C178.07 41.3262 178.551 41.6647 178.936 42.1855C179.32 42.6999 179.512 43.2988 179.512 43.9824C179.512 44.985 179.167 45.7402 178.477 46.248C177.793 46.7493 176.764 47 175.391 47H169.502V36.6289ZM172.246 45.2617H174.805C175.605 45.2617 176.117 45.1315 176.338 44.8711C176.566 44.6107 176.68 44.3014 176.68 43.9434C176.68 43.4421 176.484 43.097 176.094 42.9082C175.71 42.7194 175.023 42.625 174.033 42.625H172.246V45.2617ZM195.889 47H188.037V49.7344H185.811V44.7539H186.934C187.402 44.2331 187.79 43.4193 188.096 42.3125C188.402 41.2057 188.584 39.3112 188.643 36.6289H197.012V44.7539H198.125V49.7344H195.889V47ZM194.297 44.7539L194.307 38.8848H190.986C190.876 41.7493 190.42 43.7057 189.619 44.7539H194.297ZM202.061 39.793L199.57 39.3438C199.85 38.3411 200.332 37.599 201.016 37.1172C201.699 36.6354 202.715 36.3945 204.062 36.3945C205.286 36.3945 206.198 36.541 206.797 36.834C207.396 37.1204 207.816 37.4883 208.057 37.9375C208.304 38.3802 208.428 39.1973 208.428 40.3887L208.398 43.5918C208.398 44.5033 208.441 45.1771 208.525 45.6133C208.617 46.043 208.783 46.5052 209.023 47H206.309C206.237 46.8177 206.149 46.5475 206.045 46.1895C205.999 46.0267 205.967 45.9193 205.947 45.8672C205.479 46.3229 204.977 46.6647 204.443 46.8926C203.91 47.1204 203.34 47.2344 202.734 47.2344C201.667 47.2344 200.824 46.9447 200.205 46.3652C199.593 45.7858 199.287 45.0534 199.287 44.168C199.287 43.582 199.427 43.0612 199.707 42.6055C199.987 42.1432 200.378 41.7917 200.879 41.5508C201.387 41.3034 202.116 41.0885 203.066 40.9062C204.349 40.6654 205.238 40.4408 205.732 40.2324V39.959C205.732 39.4316 205.602 39.0573 205.342 38.8359C205.081 38.6081 204.59 38.4941 203.867 38.4941C203.379 38.4941 202.998 38.5918 202.725 38.7871C202.451 38.9759 202.23 39.3112 202.061 39.793ZM205.732 42.0195C205.381 42.1367 204.824 42.2767 204.062 42.4395C203.301 42.6022 202.803 42.7617 202.568 42.918C202.21 43.1719 202.031 43.4941 202.031 43.8848C202.031 44.2689 202.174 44.6009 202.461 44.8809C202.747 45.1608 203.112 45.3008 203.555 45.3008C204.049 45.3008 204.521 45.138 204.971 44.8125C205.303 44.5651 205.521 44.2624 205.625 43.9043C205.697 43.6699 205.732 43.224 205.732 42.5664V42.0195ZM211.074 36.6289H213.594V44.7832H216.777V36.6289H219.307V44.7832H222.48V36.6289H225.01V47H211.074V36.6289ZM235.605 32.3516H237.471C237.412 33.1784 237.194 33.8066 236.816 34.2363C236.445 34.6595 235.524 34.8711 234.053 34.8711C233.877 34.8711 233.701 34.8678 233.525 34.8613H233.174C232.301 34.8613 231.592 34.959 231.045 35.1543C230.498 35.3431 230.049 35.7142 229.697 36.2676C229.352 36.821 229.173 37.7129 229.16 38.9434C229.564 38.1816 230.085 37.612 230.723 37.2344C231.367 36.8568 232.132 36.668 233.018 36.668C234.378 36.668 235.531 37.1986 236.475 38.2598C237.419 39.3145 237.891 40.5384 237.891 41.9316C237.891 43.3835 237.393 44.6302 236.396 45.6719C235.407 46.7135 234.111 47.2344 232.51 47.2344C231.41 47.2344 230.443 46.9707 229.609 46.4434C228.776 45.916 228.18 45.1966 227.822 44.2852C227.464 43.3672 227.285 41.8503 227.285 39.7344C227.285 37.2474 227.741 35.4603 228.652 34.373C229.57 33.2858 231.169 32.7422 233.447 32.7422H234.834C235.218 32.7422 235.475 32.612 235.605 32.3516ZM230.078 41.8926C230.078 42.8366 230.312 43.5853 230.781 44.1387C231.257 44.6855 231.836 44.959 232.52 44.959C233.255 44.959 233.857 44.6758 234.326 44.1094C234.801 43.5365 235.039 42.8008 235.039 41.9023C235.039 40.9844 234.798 40.2454 234.316 39.6855C233.841 39.1191 233.252 38.8359 232.549 38.8359C231.865 38.8359 231.283 39.1126 230.801 39.666C230.319 40.2194 230.078 40.9616 230.078 41.8926ZM239.551 41.668C239.551 40.7565 239.775 39.8743 240.225 39.0215C240.674 38.1686 241.309 37.5176 242.129 37.0684C242.956 36.6191 243.877 36.3945 244.893 36.3945C246.462 36.3945 247.747 36.9056 248.75 37.9277C249.753 38.9434 250.254 40.2292 250.254 41.7852C250.254 43.3542 249.746 44.6562 248.73 45.6914C247.721 46.7201 246.449 47.2344 244.912 47.2344C243.962 47.2344 243.053 47.0195 242.188 46.5898C241.328 46.1602 240.674 45.5319 240.225 44.7051C239.775 43.8717 239.551 42.8594 239.551 41.668ZM242.363 41.8145C242.363 42.8431 242.607 43.6309 243.096 44.1777C243.584 44.7246 244.186 44.998 244.902 44.998C245.618 44.998 246.217 44.7246 246.699 44.1777C247.188 43.6309 247.432 42.8366 247.432 41.7949C247.432 40.7793 247.188 39.998 246.699 39.4512C246.217 38.9043 245.618 38.6309 244.902 38.6309C244.186 38.6309 243.584 38.9043 243.096 39.4512C242.607 39.998 242.363 40.7858 242.363 41.8145ZM252.334 36.6289H254.893V38.1523C255.225 37.6315 255.674 37.2083 256.24 36.8828C256.807 36.5573 257.435 36.3945 258.125 36.3945C259.329 36.3945 260.352 36.8665 261.191 37.8105C262.031 38.7546 262.451 40.0697 262.451 41.7559C262.451 43.4876 262.028 44.8353 261.182 45.7988C260.335 46.7559 259.31 47.2344 258.105 47.2344C257.533 47.2344 257.012 47.1204 256.543 46.8926C256.081 46.6647 255.592 46.2741 255.078 45.7207V50.9453H252.334V36.6289ZM255.049 41.6387C255.049 42.804 255.28 43.6667 255.742 44.2266C256.204 44.7799 256.768 45.0566 257.432 45.0566C258.07 45.0566 258.6 44.8027 259.023 44.2949C259.447 43.7806 259.658 42.9408 259.658 41.7754C259.658 40.6882 259.44 39.8809 259.004 39.3535C258.568 38.8262 258.027 38.5625 257.383 38.5625C256.712 38.5625 256.156 38.8229 255.713 39.3438C255.27 39.8581 255.049 40.623 255.049 41.6387ZM272.705 47H264.854V49.7344H262.627V44.7539H263.75C264.219 44.2331 264.606 43.4193 264.912 42.3125C265.218 41.2057 265.4 39.3112 265.459 36.6289H273.828V44.7539H274.941V49.7344H272.705V47ZM271.113 44.7539L271.123 38.8848H267.803C267.692 41.7493 267.236 43.7057 266.436 44.7539H271.113Z" fill="white"/>
</svg>
